# xmcd
#
# Track frame offsets: 
#        150
#        13393
#        25699
#        38804
#        52108
#        66351
#        79043
#        91436
#        104807
#        117865
#        131681
#        145073
#        159007
#        171547
#        184794
#        198217
#        211030
#        225129
#        238555
#        251347
#        265403
#        278642
#        292496
#        306177
#
# Disc length: 4257 seconds
#
# Revision: 0
# Processed by: cddbd v1.5.2PL0 Copyright (c) Steve Scherf et al.
# Submitted via: ExactAudioCopyFreeDBPlugin 1.0
#
DISCID=58109f18
DTITLE=Viola McCoy - Complete Recorded Works Vol. 1 (1923)
DYEAR=1995
DGENRE=Blues
TTITLE0=If You Want to Keep Your Daddy Home
TTITLE1=Laughin' Cryin' Blues
TTITLE2=Laughin' Cryin' Blues
TTITLE3=Strut Long Papa
TTITLE4=Midnight Blues (A Wee Hour Chant)
TTITLE5=Triflin' Blues
TTITLE6=Tired o' Waitin' Blues
TTITLE7=Gulf Coast Blues
TTITLE8=Triflin' Blues
TTITLE9=Chirping the Blues
TTITLE10=Just Thinkin' (A Blues)
TTITLE11=Chirpin' the Blues
TTITLE12=Tired o' Waitin' Blues
TTITLE13=Michigan Water Blues
TTITLE14=Long Lost Mama
TTITLE15=Wish I Had You (And I'm Gonna Get You Blues)
TTITLE16=Sad and Lonely Blues
TTITLE17=Just Thinkin' (Blues)
TTITLE18=Bleeding Hearted Blues
TTITLE19=If You Want to Keep Your Daddy Home
TTITLE20=Taint No Telling What the Blues Will Make You Do
TTITLE21=Bama Bound Blues
TTITLE22=Mistreatin' Daddy
TTITLE23=Wish I Had You (And I'm Gonna Get You Blues)
EXTD=
EXTT0=
EXTT1=
EXTT2=
EXTT3=
EXTT4=
EXTT5=
EXTT6=
EXTT7=
EXTT8=
EXTT9=
EXTT10=
EXTT11=
EXTT12=
EXTT13=
EXTT14=
EXTT15=
EXTT16=
EXTT17=
EXTT18=
EXTT19=
EXTT20=
EXTT21=
EXTT22=
EXTT23=
PLAYORDER=
